<svg width="28" height="28" viewBox="0 0 28 28" fill="none" xmlns="http://www.w3.org/2000/svg">
<path d="M22.1568 3.49842H17.2823C16.7925 2.1457 15.5098 1.16614 13.9938 1.16614C12.4778 1.16614 11.1951 2.1457 10.7053 3.49842H5.83082C4.54806 3.49842 3.49854 4.54795 3.49854 5.8307V22.1567C3.49854 23.4394 4.54806 24.489 5.83082 24.489H22.1568C23.4396 24.489 24.4891 23.4394 24.4891 22.1567V5.8307C24.4891 4.54795 23.4396 3.49842 22.1568 3.49842ZM13.9938 3.49842C14.6352 3.49842 15.16 4.02318 15.16 4.66456C15.16 5.30594 14.6352 5.8307 13.9938 5.8307C13.3524 5.8307 12.8277 5.30594 12.8277 4.66456C12.8277 4.02318 13.3524 3.49842 13.9938 3.49842ZM16.3261 19.8244H8.1631V17.4921H16.3261V19.8244ZM19.8245 15.1598H8.1631V12.8276H19.8245V15.1598ZM19.8245 10.4953H8.1631V8.16299H19.8245V10.4953Z" fill="#757575"/>
</svg>
