<svg width="24" height="24" viewBox="0 0 24 24" fill="none" xmlns="http://www.w3.org/2000/svg">
<path d="M17.9958 16.0762C17.2359 16.0762 16.5561 16.3762 16.0362 16.846L8.90789 12.697C8.95788 12.4671 8.99787 12.2371 8.99787 11.9972C8.99787 11.7572 8.95788 11.5273 8.90789 11.2973L15.9562 7.1883C16.4961 7.68818 17.206 7.99811 17.9958 7.99811C19.6554 7.99811 20.9951 6.65842 20.9951 4.99881C20.9951 3.3392 19.6554 1.99951 17.9958 1.99951C16.3362 1.99951 14.9965 3.3392 14.9965 4.99881C14.9965 5.23876 15.0365 5.4687 15.0864 5.69865L8.03809 9.80769C7.49822 9.30781 6.78838 8.99788 5.99857 8.99788C4.33895 8.99788 2.99927 10.3376 2.99927 11.9972C2.99927 13.6568 4.33895 14.9965 5.99857 14.9965C6.78838 14.9965 7.49822 14.6866 8.03809 14.1867L15.1564 18.3457C15.1064 18.5556 15.0764 18.7756 15.0764 18.9955C15.0764 20.6052 16.3861 21.9149 17.9958 21.9149C19.6054 21.9149 20.9151 20.6052 20.9151 18.9955C20.9151 17.3859 19.6054 16.0762 17.9958 16.0762Z" fill="#404040"/>
</svg>
