<svg width="28" height="28" viewBox="0 0 28 28" fill="none" xmlns="http://www.w3.org/2000/svg">
<path d="M24.4891 20.9905V22.1567C24.4891 23.4394 23.4396 24.489 22.1568 24.489H5.83082C4.5364 24.489 3.49854 23.4394 3.49854 22.1567V5.8307C3.49854 4.54794 4.5364 3.49841 5.83082 3.49841H22.1568C23.4396 3.49841 24.4891 4.54794 24.4891 5.8307V6.99684H13.9938C12.6994 6.99684 11.6615 8.04637 11.6615 9.32912V18.6583C11.6615 19.941 12.6994 20.9905 13.9938 20.9905H24.4891ZM13.9938 18.6583H25.6552V9.32912H13.9938V18.6583ZM18.6584 15.7429C17.6905 15.7429 16.9092 14.9616 16.9092 13.9937C16.9092 13.0258 17.6905 12.2445 18.6584 12.2445C19.6263 12.2445 20.4076 13.0258 20.4076 13.9937C20.4076 14.9616 19.6263 15.7429 18.6584 15.7429Z" fill="#757575"/>
</svg>
