<svg width="32" height="32" viewBox="0 0 32 32" fill="none" xmlns="http://www.w3.org/2000/svg">
<path d="M27.9987 23.999V25.3322C27.9987 26.7988 26.7988 27.9988 25.3322 27.9988H6.66631C5.18637 27.9988 3.99976 26.7988 3.99976 25.3322V6.66638C3.99976 5.19978 5.18637 3.99983 6.66631 3.99983H25.3322C26.7988 3.99983 27.9987 5.19978 27.9987 6.66638V7.99966H15.9992C14.5193 7.99966 13.3327 9.1996 13.3327 10.6662V21.3324C13.3327 22.799 14.5193 23.999 15.9992 23.999H27.9987ZM15.9992 21.3324H29.332V10.6662H15.9992V21.3324ZM21.3323 17.9992C20.2257 17.9992 19.3324 17.1059 19.3324 15.9993C19.3324 14.8927 20.2257 13.9994 21.3323 13.9994C22.4389 13.9994 23.3322 14.8927 23.3322 15.9993C23.3322 17.1059 22.4389 17.9992 21.3323 17.9992Z" fill="#FFE403"/>
</svg>
