<svg width="32" height="32" viewBox="0 0 32 32" fill="none" xmlns="http://www.w3.org/2000/svg">
<path d="M26.6655 10.6662H22.6657V5.3331H3.9998C2.5332 5.3331 1.33325 6.53305 1.33325 7.99965V22.6657H3.9998C3.9998 24.8789 5.78639 26.6655 7.99963 26.6655C10.2129 26.6655 11.9995 24.8789 11.9995 22.6657H19.9991C19.9991 24.8789 21.7857 26.6655 23.9989 26.6655C26.2122 26.6655 27.9988 24.8789 27.9988 22.6657H30.6653V15.9993L26.6655 10.6662ZM7.99963 24.6656C6.89301 24.6656 5.99971 23.7723 5.99971 22.6657C5.99971 21.5591 6.89301 20.6658 7.99963 20.6658C9.10625 20.6658 9.99954 21.5591 9.99954 22.6657C9.99954 23.7723 9.10625 24.6656 7.99963 24.6656ZM25.9988 12.6661L28.6121 15.9993H22.6657V12.6661H25.9988ZM23.9989 24.6656C22.8923 24.6656 21.999 23.7723 21.999 22.6657C21.999 21.5591 22.8923 20.6658 23.9989 20.6658C25.1055 20.6658 25.9988 21.5591 25.9988 22.6657C25.9988 23.7723 25.1055 24.6656 23.9989 24.6656Z" fill="#E48714"/>
</svg>
