<svg width="24" height="24" viewBox="0 0 24 24" fill="none" xmlns="http://www.w3.org/2000/svg">
<path d="M10.9974 17.9958H12.9969V15.9962H10.9974V17.9958ZM11.9972 1.99951C6.47847 1.99951 1.99951 6.47847 1.99951 11.9972C1.99951 17.5159 6.47847 21.9948 11.9972 21.9948C17.5159 21.9948 21.9948 17.5159 21.9948 11.9972C21.9948 6.47847 17.5159 1.99951 11.9972 1.99951ZM11.9972 19.9953C7.58821 19.9953 3.99905 16.4061 3.99905 11.9972C3.99905 7.58821 7.58821 3.99905 11.9972 3.99905C16.4061 3.99905 19.9953 7.58821 19.9953 11.9972C19.9953 16.4061 16.4061 19.9953 11.9972 19.9953ZM11.9972 5.99858C9.78769 5.99858 7.99811 7.78816 7.99811 9.99764H9.99764C9.99764 8.8979 10.8974 7.99811 11.9972 7.99811C13.0969 7.99811 13.9967 8.8979 13.9967 9.99764C13.9967 11.9972 10.9974 11.7472 10.9974 14.9965H12.9969C12.9969 12.747 15.9962 12.4971 15.9962 9.99764C15.9962 7.78816 14.2067 5.99858 11.9972 5.99858Z" fill="#F5F5F5"/>
</svg>
