<svg width="15" height="15" viewBox="0 0 15 15" fill="none" xmlns="http://www.w3.org/2000/svg">
<path d="M7.49999 0C6.01663 0 4.56658 0.439866 3.33322 1.26397C2.09985 2.08808 1.13856 3.25942 0.570906 4.62986C0.00324965 6.00031 -0.145275 7.5083 0.144113 8.96316C0.433502 10.418 1.14781 11.7544 2.1967 12.8033C3.24559 13.8522 4.58196 14.5665 6.03681 14.8559C7.49167 15.1452 8.99966 14.9967 10.3701 14.4291C11.7405 13.8614 12.9119 12.9001 13.736 11.6667C14.5601 10.4334 15 8.98334 15 7.49998C14.9977 5.51156 14.2068 3.60522 12.8008 2.19919C11.3948 0.793155 9.48841 0.00225573 7.49999 0ZM7.49999 13.6363C6.28633 13.6363 5.09993 13.2764 4.09081 12.6022C3.0817 11.9279 2.29518 10.9695 1.83074 9.84826C1.36629 8.72699 1.24477 7.49317 1.48154 6.30284C1.71832 5.1125 2.30275 4.01911 3.16093 3.16093C4.01911 2.30274 5.11251 1.71831 6.30284 1.48154C7.49318 1.24477 8.72699 1.36629 9.84826 1.83073C10.9695 2.29518 11.9279 3.08169 12.6022 4.09081C13.2764 5.09993 13.6363 6.28633 13.6363 7.49998C13.6345 9.12689 12.9874 10.6866 11.837 11.837C10.6867 12.9874 9.12689 13.6345 7.49999 13.6363Z" fill="#464646"/>
<path d="M8.18163 7.21769V4.7727C8.18163 4.59187 8.10979 4.41845 7.98193 4.29058C7.85406 4.16272 7.68064 4.09088 7.49981 4.09088C7.31898 4.09088 7.14556 4.16272 7.01769 4.29058C6.88983 4.41845 6.81799 4.59187 6.81799 4.7727V7.49996L6.81868 7.50324C6.81986 7.68283 6.89141 7.85479 7.01797 7.98221L8.94601 9.91059C9.00896 9.97549 9.08418 10.0272 9.16731 10.0628C9.25044 10.0983 9.3398 10.117 9.43021 10.1177C9.52062 10.1184 9.61026 10.1011 9.69392 10.0668C9.77758 10.0325 9.85359 9.98194 9.91752 9.91802C9.98145 9.85409 10.032 9.77809 10.0663 9.69443C10.1006 9.61077 10.1179 9.52113 10.1172 9.43072C10.1165 9.34031 10.0979 9.25095 10.0623 9.16782C10.0268 9.08469 9.97506 9.00946 9.91017 8.94651L8.18163 7.21769Z" fill="#464646"/>
</svg>
