<svg width="32" height="32" viewBox="0 0 32 32" fill="none" xmlns="http://www.w3.org/2000/svg">
<path d="M25.3322 22.6656H27.9987C28.7987 22.6656 29.332 22.1323 29.332 21.3324V17.3326C29.332 16.1326 28.3987 15.066 27.3321 14.7993C24.9322 14.1327 21.3324 13.3327 21.3324 13.3327C21.3324 13.3327 19.5991 11.4662 18.3992 10.2662C17.7325 9.7329 16.9326 9.33292 15.9993 9.33292H6.66637C5.86641 9.33292 5.19977 9.86623 4.79979 10.5329L2.9332 14.3994C2.75665 14.9143 2.66655 15.4549 2.66655 15.9993V21.3324C2.66655 22.1323 3.19986 22.6656 3.99982 22.6656H6.66637" stroke="#FFE403" stroke-width="2.66655" stroke-linecap="round" stroke-linejoin="round"/>
<path d="M9.33291 25.3322C10.8056 25.3322 11.9995 24.1384 11.9995 22.6657C11.9995 21.193 10.8056 19.9991 9.33291 19.9991C7.86022 19.9991 6.66637 21.193 6.66637 22.6657C6.66637 24.1384 7.86022 25.3322 9.33291 25.3322Z" stroke="#FFE403" stroke-width="2.66655" stroke-linecap="round" stroke-linejoin="round"/>
<path d="M11.9995 22.6656H19.9991" stroke="#FFE403" stroke-width="2.66655" stroke-linecap="round" stroke-linejoin="round"/>
<path d="M22.6656 25.3322C24.1383 25.3322 25.3322 24.1384 25.3322 22.6657C25.3322 21.193 24.1383 19.9991 22.6656 19.9991C21.193 19.9991 19.9991 21.193 19.9991 22.6657C19.9991 24.1384 21.193 25.3322 22.6656 25.3322Z" stroke="#FFE403" stroke-width="2.66655" stroke-linecap="round" stroke-linejoin="round"/>
</svg>
