<svg width="24" height="24" viewBox="0 0 24 24" fill="none" xmlns="http://www.w3.org/2000/svg">
<path d="M6.61842 10.7875C8.05809 13.6168 10.3775 15.9263 13.2069 17.376L15.4064 15.1765C15.6763 14.9065 16.0762 14.8166 16.4261 14.9365C17.5459 15.3065 18.7556 15.5064 19.9953 15.5064C20.5452 15.5064 20.9951 15.9563 20.9951 16.5062V19.9954C20.9951 20.5452 20.5452 20.9951 19.9953 20.9951C10.6075 20.9951 2.99927 13.3869 2.99927 3.9991C2.99927 3.44922 3.44916 2.99933 3.99903 2.99933H7.49822C8.04809 2.99933 8.49798 3.44922 8.49798 3.9991C8.49798 5.2488 8.69794 6.44852 9.06785 7.56826C9.17782 7.91818 9.09784 8.30809 8.81791 8.58802L6.61842 10.7875Z" fill="#757575"/>
</svg>
